HIERARCHY
ROOT Hips
{
	OFFSET 0.000000 0.000000 0.000000
	CHANNELS 6 Xposition Yposition Zposition Zrotation Yrotation Xrotation 
	JOINT LHipJoint
	{
		OFFSET 0.000000 0.000000 0.000000
		CHANNELS 3 Zrotation Yrotation Xrotation
		JOINT LeftUpLeg
		{
			OFFSET 1.363060 -1.794630 0.839290
			CHANNELS 3 Zrotation Yrotation Xrotation
			JOINT LeftLeg
			{
				OFFSET 2.448110 -6.726130 0.000000
				CHANNELS 3 Zrotation Yrotation Xrotation
				JOINT LeftFoot
				{
					OFFSET 2.562200 -7.039590 0.000000
					CHANNELS 3 Zrotation Yrotation Xrotation
					JOINT LeftToeBase
					{
						OFFSET 0.157640 -0.433110 2.322550
						CHANNELS 3 Zrotation Yrotation Xrotation
						End Site
						{
							OFFSET 0.000000 0.000000 0.000000
						}
					}
				}
			}
		}
	}
	JOINT RHipJoint
	{
		OFFSET 0.000000 0.000000 0.000000
		CHANNELS 3 Zrotation Yrotation Xrotation
		JOINT RightUpLeg
		{
			OFFSET -1.305520 -1.794630 0.839290
			CHANNELS 3 Zrotation Yrotation Xrotation
			JOINT RightLeg
			{
				OFFSET -2.542530 -6.985550 0.000000
				CHANNELS 3 Zrotation Yrotation Xrotation
				JOINT RightFoot
				{
					OFFSET -2.568260 -7.056230 0.000000
					CHANNELS 3 Zrotation Yrotation Xrotation
					JOINT RightToeBase
					{
						OFFSET -0.164730 -0.452590 2.363150
						CHANNELS 3 Zrotation Yrotation Xrotation
						End Site
						{
							OFFSET 0.000000 0.000000 0.000000
						}
					}
				}
			}
		}
	}
	JOINT LowerBack
	{
		OFFSET 0.000000 0.000000 0.000000
		CHANNELS 3 Zrotation Yrotation Xrotation
		JOINT Spine
		{
			OFFSET 0.028270 2.035590 -0.193380
			CHANNELS 3 Zrotation Yrotation Xrotation
			JOINT Spine1
			{
				OFFSET 0.056720 2.048850 -0.042750
				CHANNELS 3 Zrotation Yrotation Xrotation
				JOINT Neck
				{
					OFFSET 0.000000 0.000000 0.000000
					CHANNELS 3 Zrotation Yrotation Xrotation
					JOINT Neck1
					{
						OFFSET -0.054170 1.746240 0.172020
						CHANNELS 3 Zrotation Yrotation Xrotation
						JOINT Head
						{
							OFFSET 0.104070 1.761360 -0.123970
							CHANNELS 3 Zrotation Yrotation Xrotation
							End Site
							{
								OFFSET 0.000000 0.000000 0.000000
							}
						}
					}
				}
				JOINT LeftShoulder
				{
					OFFSET 0.000000 0.000000 0.000000
					CHANNELS 3 Zrotation Yrotation Xrotation
					JOINT LeftArm
					{
						OFFSET 3.362410 1.200890 -0.311210
						CHANNELS 3 Zrotation Yrotation Xrotation
						JOINT LeftForeArm
						{
							OFFSET 4.983000 -0.000000 -0.000000
							CHANNELS 3 Zrotation Yrotation Xrotation
							JOINT LeftHand
							{
								OFFSET 3.483560 -0.000000 -0.000000
								CHANNELS 3 Zrotation Yrotation Xrotation
								JOINT LeftFingerBase
								{
									OFFSET 0.000000 0.000000 0.000000
									CHANNELS 3 Zrotation Yrotation Xrotation
									JOINT LeftHandIndex1
									{
										OFFSET 0.715260 -0.000000 -0.000000
										CHANNELS 3 Zrotation Yrotation Xrotation
										End Site
										{
											OFFSET 0.000000 0.000000 0.000000
										}
									}
								}
								JOINT LThumb
								{
									OFFSET 0.000000 0.000000 0.000000
									CHANNELS 3 Zrotation Yrotation Xrotation
									End Site
									{
										OFFSET 0.000000 0.000000 0.000000
									}
								}
							}
						}
					}
				}
				JOINT RightShoulder
				{
					OFFSET 0.000000 0.000000 0.000000
					CHANNELS 3 Zrotation Yrotation Xrotation
					JOINT RightArm
					{
						OFFSET -3.136600 1.374050 -0.404650
						CHANNELS 3 Zrotation Yrotation Xrotation
						JOINT RightForeArm
						{
							OFFSET -5.241900 -0.000000 -0.000000
							CHANNELS 3 Zrotation Yrotation Xrotation
							JOINT RightHand
							{
								OFFSET -3.444170 -0.000000 -0.000000
								CHANNELS 3 Zrotation Yrotation Xrotation
								JOINT RightFingerBase
								{
									OFFSET 0.000000 0.000000 0.000000
									CHANNELS 3 Zrotation Yrotation Xrotation
									JOINT RightHandIndex1
									{
										OFFSET -0.622530 -0.000000 -0.000000
										CHANNELS 3 Zrotation Yrotation Xrotation
										End Site
										{
											OFFSET 0.000000 0.000000 0.000000
										}
									}
								}
								JOINT RThumb
								{
									OFFSET 0.000000 0.000000 0.000000
									CHANNELS 3 Zrotation Yrotation Xrotation
									End Site
									{
										OFFSET 0.000000 0.000000 0.000000
									}
								}
							}
						}
					}
				}
			}
		}
	}
}
MOTION
Frames: 7
Frame Time: 0.008333
0.140188 16.384982 -2.427656 -96.043246 85.021388 -75.151151 -10.572200 0.511656 1.312475 -21.808056 -3.852310 -31.270557 -2.214458 0.322726 33.195288 3.301463 10.042949 -27.659076 175.791600 0.000000 -1.138900 9.666974 -0.869074 0.110177 -5.080857 -0.736355 -32.275586 -0.453034 -3.830395 60.775528 -2.906250 -14.646963 -11.819572 -179.319600 0.000000 -105.259000 2.043260 0.398151 -0.873732 1.075639 0.392904 -4.419146 0.918895 0.514519 -6.571948 -5.735451 -4.854485 -7.732387 1.606033 0.126105 -0.002822 0.000000 0.000000 0.000000 7.042909 1.904674 -3.179351 -30.886483 -61.481885 -59.676740 5.151319 -46.439060 -0.551589 50.016000 -3.227441 -1.899369 -0.864455 0.788187 0.000000 0.000000 0.000000 0.000000 0.000000 0.000000 0.000000 -21.198626 -1.322583 2.084336 -105.869440 73.738076 -171.013489 -6.498211 8.132317 -0.078100 -7.038107 18.958452 -1.273307 0.145111 -1.050026 -0.000000 0.000000 0.000000 0.000000 0.000000 0.000000 0.000000 
0.363501 16.496105 -2.526384 -98.015466 84.549362 -77.058532 -10.805458 0.516764 1.363372 -21.068143 -3.644707 -29.255127 -2.153964 0.107603 30.615189 3.062368 9.685272 -25.729965 176.314600 0.000000 -0.044700 9.396312 -0.811111 0.290947 -4.167399 -0.010046 -33.449220 -0.331667 -3.711346 59.275885 -2.912890 -14.461139 -11.587851 -179.414000 0.000000 -104.906000 2.651921 0.289401 -1.063330 1.215701 0.237595 -4.355893 0.938296 0.341258 -6.131946 -5.478567 -5.006886 -7.948146 1.600612 0.130596 -0.070590 0.000000 0.000000 0.000000 7.178888 1.480909 -2.618191 -30.222789 -60.782856 -56.810704 5.320240 -42.244253 -0.505305 45.947524 -0.596777 -0.566356 -0.842448 0.717235 0.000000 0.000000 0.000000 0.000000 0.000000 0.000000 0.000000 -20.917456 -1.270999 2.255419 -104.576902 73.287906 -164.836022 -5.857745 8.820232 -0.078895 -8.184730 18.888264 -1.480129 0.200145 -1.042344 -0.000000 0.000000 0.000000 0.000000 0.000000 0.000000 0.000000 
0.586733 16.610024 -2.625402 -100.991844 84.058318 -79.971662 -11.037650 0.554208 1.455393 -20.306450 -3.532298 -27.331014 -2.069799 -0.068095 28.185029 2.809110 9.326437 -23.574708 -3.132900 -0.000000 -1.316700 9.128683 -0.764798 0.474243 -3.215421 0.619983 -34.502787 -0.185953 -3.573826 57.500049 -2.892227 -14.108324 -11.331014 -179.520200 0.000000 -104.107000 3.231836 0.125095 -1.315467 1.357241 0.026329 -4.273609 0.956951 0.104885 -5.553336 -5.123784 -5.168629 -8.210086 1.600501 0.136571 -0.153079 0.000000 0.000000 0.000000 7.392100 0.937557 -2.017456 -28.772597 -60.193824 -54.076561 5.318724 -37.662172 -0.434951 40.011740 1.713059 0.395444 -0.781490 0.640339 0.000000 0.000000 0.000000 0.000000 0.000000 0.000000 0.000000 -20.527598 -1.165169 2.609611 -102.265529 72.567652 -157.006709 -5.014511 9.797909 -0.078087 -9.280887 18.506152 -1.647888 0.253412 -1.017344 -0.000000 0.000000 0.000000 0.000000 0.000000 0.000000 0.000000 
0.809817 16.725753 -2.724285 -104.789287 83.543153 -83.706244 -11.267086 0.627445 1.577457 -19.541980 -3.483352 -25.524173 -1.969517 -0.199127 25.950474 2.543865 8.944892 -21.216897 -2.559100 -0.000000 -3.096200 8.866886 -0.731213 0.658821 -2.247358 1.141693 -35.428257 -0.014191 -3.418066 55.431531 -2.838995 -13.570673 -11.032443 -179.638999 -0.000000 -103.119000 3.774602 -0.065463 -1.618336 1.490033 -0.211306 -4.182087 0.945018 -0.162227 -4.882483 -4.678742 -5.348206 -8.479300 1.607352 0.143349 -0.238851 0.000000 0.000000 0.000000 7.646966 0.242249 -1.350547 -26.760188 -59.777582 -51.420581 5.080041 -32.965237 -0.341879 32.609043 3.402667 0.845399 -0.670370 0.559306 0.000000 0.000000 0.000000 0.000000 0.000000 0.000000 0.000000 -20.049227 -1.024323 3.039644 -99.085344 71.710136 -147.946132 -4.041757 11.134668 -0.075920 -10.251450 17.905770 -1.762590 0.299629 -0.977294 -0.000000 0.000000 0.000000 0.000000 0.000000 0.000000 0.000000 
1.032739 16.842514 -2.822798 -109.210770 82.988709 -88.059509 -11.493216 0.735401 1.713565 -18.783921 -3.461132 -23.849760 -1.859863 -0.284644 23.928990 2.268513 8.517423 -18.670222 -1.974100 -0.000001 -5.427700 8.611955 -0.711518 0.840905 -1.276133 1.556194 -36.218690 0.185446 -3.244074 53.055796 -2.751942 -12.855407 -10.678061 -179.769200 0.000000 -102.076000 4.284059 -0.249557 -1.948032 1.606533 -0.442435 -4.095082 0.877149 -0.422601 -4.195789 -4.163543 -5.558151 -8.713324 1.619722 0.149900 -0.315237 0.000000 0.000000 0.000000 7.923621 -0.606814 -0.611221 -24.473523 -59.564985 -48.713642 4.579340 -28.411965 -0.237682 24.433210 4.359543 0.855867 -0.512807 0.477618 0.000000 0.000000 0.000000 0.000000 0.000000 0.000000 0.000000 -19.504981 -0.888946 3.414384 -95.344999 70.881356 -138.306231 -3.071941 12.826765 -0.072997 -11.038448 17.189518 -1.821458 0.334258 -0.927460 -0.000000 0.000000 0.000000 0.000000 0.000000 0.000000 0.000000 
1.255648 16.959538 -2.920843 -114.026854 82.371725 -92.793547 -11.715614 0.873053 1.846338 -18.032109 -3.429918 -22.314699 -1.745709 -0.326947 22.118065 1.985988 8.023739 -15.943826 -1.392300 0.000000 -8.401399 8.364432 -0.708640 1.018339 -0.312948 1.882242 -36.866566 0.417381 -3.051549 50.356228 -2.622171 -11.932918 -10.252173 -179.907900 0.000000 -101.251000 4.772592 -0.407266 -2.278027 1.705448 -0.647025 -4.024417 0.747136 -0.652024 -3.567329 -3.606707 -5.810622 -8.886855 1.633909 0.155352 -0.374464 0.000000 0.000000 0.000000 8.226352 -1.568605 0.165624 -22.247677 -59.534693 -45.674954 3.851117 -24.235963 -0.140198 16.297532 4.754858 0.635451 -0.331532 0.397498 0.000000 0.000000 0.000000 0.000000 0.000000 0.000000 0.000000 -18.913293 -0.814329 3.651195 -91.413218 70.190553 -128.799929 -2.232445 14.779497 -0.070059 -11.619821 16.438293 -1.831629 0.355740 -0.874610 -0.000000 0.000000 0.000000 0.000000 0.000000 0.000000 0.000000 
1.478829 17.075852 -3.018369 -118.987951 81.670001 -97.652676 -11.933782 1.032828 1.961389 -17.282124 -3.361793 -20.916503 -1.629963 -0.330615 20.500951 1.702035 7.453552 -13.050820 -0.834300 0.000000 -12.023900 8.123797 -0.723962 1.191910 0.637113 2.146785 -37.367909 0.683434 -2.838333 47.324903 -2.454084 -10.846011 -9.744779 179.950800 0.000001 -100.760000 5.253689 -0.539011 -2.587384 1.791188 -0.825307 -3.975584 0.568916 -0.848979 -3.039945 -3.036920 -6.115665 -9.000999 1.646542 0.159428 -0.416501 0.000000 0.000000 0.000000 8.575852 -2.565668 0.917240 -20.410460 -59.628114 -41.865787 2.975955 -20.651361 -0.063273 8.847490 4.964270 0.365297 -0.156549 0.318077 0.000000 0.000000 0.000000 0.000000 0.000000 0.000000 0.000000 -18.292035 -0.850591 3.742963 -87.634807 69.659650 -120.025868 -1.587089 16.848156 -0.067611 -12.000652 15.704273 -1.804428 0.365457 -0.824630 -0.000000 0.000000 0.000000 0.000000 0.000000 0.000000 0.000000 
